<svg xmlns="http://www.w3.org/2000/svg" xmlns:xlink="http://www.w3.org/1999/xlink" viewBox="0 0 1363.44 918.63"><defs><style>.cls-1{fill:none;}.cls-2{isolation:isolate;}.cls-3{fill:gray;}.cls-4{fill:#fff;}.cls-5{fill:#696969;}.cls-6{fill:#6a6a6a;}.cls-7{fill:#1e1e1e;}.cls-8{fill:#787878;}.cls-9{fill:#777;}.cls-10{fill:#626262;}.cls-11{fill:#676767;}.cls-12{clip-path:url(#clip-path);}.cls-13{clip-path:url(#clip-path-2);}.cls-14{fill:#7a7a7a;}.cls-15{fill:#757575;}.cls-16{fill:#707070;}.cls-17{fill:#6b6b6b;}</style><clipPath id="clip-path"><path class="cls-1" d="M136.56,910c81.16-23.5,670.69-153.1,990.53-222.54l8.89,4.77c-319.83,69.44-909.36,199-990.52,222.54Z"/></clipPath><clipPath id="clip-path-2"><path class="cls-1" d="M134.44,918.63l-8.9-4.77c.07-2.42.09-3.59,43.84-14.46,26-6.45,64.09-15.49,113.36-26.86,83-19.13,198.67-45.16,343.87-77.34,241.2-53.45,485.46-106.52,499.47-109.57l8.9,4.77C1121,693.45,876.71,746.51,635.5,800c-145.19,32.18-260.89,58.2-343.87,77.34-49.27,11.37-87.41,20.4-113.36,26.86C134.52,915,134.51,916.21,134.44,918.63Z"/></clipPath></defs><g id="Calque_2" data-name="Calque 2"><g id="Calque_1-2" data-name="Calque 1"><g class="cls-2"><polygon class="cls-3" points="1092.91 623.2 1084.02 618.43 1122.17 476.6 1131.07 481.37 1092.91 623.2"/><polygon class="cls-3" points="1139.24 460.24 1130.34 455.47 1145.41 396.69 1154.3 401.46 1139.24 460.24"/><polygon class="cls-4" points="1052.05 573.37 1043.15 568.6 1049.51 546.49 1058.4 551.25 1052.05 573.37"/><polygon class="cls-3" points="1048.19 569.04 1039.3 564.28 1042.58 552.81 1051.48 557.58 1048.19 569.04"/><polygon class="cls-4" points="1014.85 502.21 1005.95 497.45 1122.17 476.6 1131.07 481.37 1014.85 502.21"/><polygon class="cls-5" points="1021.05 496.06 1012.15 491.3 1128.94 470.35 1137.83 475.12 1021.05 496.06"/><polygon class="cls-3" points="1014.85 502.21 1005.95 497.45 1009.86 477.44 1018.76 482.21 1014.85 502.21"/><polygon class="cls-5" points="1018.76 482.21 1009.86 477.44 1130.34 455.47 1139.24 460.24 1018.76 482.21"/><polygon class="cls-6" points="916.73 657.63 907.83 652.86 1084.02 618.43 1092.91 623.2 916.73 657.63"/><polygon class="cls-4" points="934.58 595.26 925.68 590.5 1043.15 568.6 1052.05 573.37 934.58 595.26"/><polygon class="cls-4" points="916.73 657.63 907.83 652.86 925.68 590.5 934.58 595.26 916.73 657.63"/><polygon class="cls-5" points="930.73 590.94 921.83 586.17 1039.3 564.28 1048.19 569.04 930.73 590.94"/><polygon class="cls-3" points="909.79 664.03 900.9 659.27 921.83 586.17 930.73 590.94 909.79 664.03"/><polygon class="cls-5" points="939.9 573.18 931 568.41 1049.51 546.49 1058.4 551.25 939.9 573.18"/><polygon class="cls-4" points="1154.3 401.46 1139.24 460.24 1018.76 482.21 1014.85 502.21 1131.07 481.37 1092.91 623.2 916.73 657.63 934.58 595.26 1052.05 573.37 1058.4 551.25 939.9 573.18 976.95 435.93 1154.3 401.46"/><polygon class="cls-4" points="976.95 435.93 968.06 431.16 1145.41 396.69 1154.3 401.46 976.95 435.93"/><polygon class="cls-4" points="939.9 573.18 931 568.41 968.06 431.16 976.95 435.93 939.9 573.18"/><polygon class="cls-3" points="933.12 579.48 924.22 574.72 964.13 426.88 973.03 431.64 933.12 579.48"/><path class="cls-7" d="M1143.2,464.57l-120.28,21.92-1.87,9.57,116.78-20.94-41,152.37L909.79,664l20.93-73.1L1048.19,569l3.29-11.46-118.36,21.9L973,431.65l188-36.55Zm-12.13,16.8-116.22,20.84,3.91-20,120.48-22,15.06-58.78L977,435.93,939.9,573.18l118.5-21.93-6.35,22.12L934.58,595.26l-17.85,62.37,176.18-34.43,38.16-141.83"/><polygon class="cls-6" points="973.03 431.64 964.13 426.88 1152.09 390.34 1160.98 395.1 973.03 431.64"/><polygon class="cls-8" points="982.23 405.34 973.33 400.57 1059.39 326.11 1068.29 330.88 982.23 405.34"/><polygon class="cls-6" points="833.52 673.89 824.62 669.13 879.55 658.22 888.45 662.99 833.52 673.89"/><polygon class="cls-3" points="888.45 662.99 879.55 658.22 940.59 436.85 949.48 441.62 888.45 662.99"/><polygon class="cls-4" points="833.52 673.89 824.62 669.13 836.17 621.87 845.07 626.64 833.52 673.89"/><polygon class="cls-3" points="826.91 680.26 818.01 675.5 829.61 628.02 838.51 632.79 826.91 680.26"/><polygon class="cls-9" points="1032.05 230.36 1023.15 225.59 1104.68 161.88 1113.58 166.65 1032.05 230.36"/><polygon class="cls-4" points="862.16 564.74 853.26 559.97 864.06 511.38 872.96 516.15 862.16 564.74"/><polygon class="cls-3" points="858.1 560.41 849.2 555.64 857.69 517.43 866.59 522.2 858.1 560.41"/><polygon class="cls-8" points="971.84 319.75 962.95 314.98 1032.16 256.05 1041.06 260.82 971.84 319.75"/><polygon class="cls-3" points="768.06 686.78 759.16 682.01 772.71 632.72 781.6 637.48 768.06 686.78"/><polygon class="cls-5" points="781.6 637.48 772.71 632.72 836.17 621.87 845.07 626.64 781.6 637.48"/><polygon class="cls-4" points="799.51 575.61 790.62 570.85 853.26 559.97 862.16 564.74 799.51 575.61"/><polygon class="cls-5" points="806.19 569.42 797.29 564.65 849.2 555.64 858.1 560.41 806.19 569.42"/><polygon class="cls-3" points="799.51 575.61 790.62 570.85 803.58 521.13 812.47 525.9 799.51 575.61"/><polygon class="cls-5" points="812.47 525.9 803.58 521.13 864.06 511.38 872.96 516.15 812.47 525.9"/><polygon class="cls-5" points="713.23 696.87 704.33 692.1 759.16 682.01 768.06 686.78 713.23 696.87"/><path class="cls-4" d="M772.81,475.48l176.67-33.86L888.45,663l-54.93,10.91,11.54-47.25L781.6,637.48l-13.54,49.3-54.84,10.09Zm89.35,89.26L873,516.15l-60.49,9.75-13,49.71,62.65-10.87"/><path class="cls-7" d="M799.51,575.61l13-49.71L873,516.15l-10.8,48.59Zm67.08-53.41-50.2,8.09-10.2,39.13,51.91-9,8.49-38.21"/><polygon class="cls-4" points="772.81 475.48 763.91 470.71 940.59 436.85 949.48 441.62 772.81 475.48"/><polygon class="cls-4" points="713.22 696.87 704.33 692.1 763.91 470.71 772.81 475.48 713.22 696.87"/><polygon class="cls-6" points="787.38 443.31 778.48 438.54 973.33 400.57 982.23 405.34 787.38 443.31"/><polygon class="cls-3" points="706.45 703.16 697.55 698.39 759.99 466.42 768.89 471.19 706.45 703.16"/><polygon class="cls-6" points="768.89 471.19 759.99 466.42 947.43 430.49 956.32 435.25 768.89 471.19"/><path class="cls-7" d="M768.89,471.19l187.43-35.94-64,232-65.44,13,11.6-47.47-53,9.07L772,691.1l-65.5,12.06ZM888.45,663l61-221.36L772.81,475.48,713.22,696.87l54.84-10.09,13.54-49.3,63.46-10.84-11.54,47.25L888.45,663"/><polygon class="cls-6" points="631.29 712.65 622.39 707.89 676.18 697.5 685.08 702.27 631.29 712.65"/><polygon class="cls-4" points="1068.29 330.88 982.23 405.34 787.38 443.31 804.16 383.15 1068.29 330.88"/><polygon class="cls-4" points="787.38 443.31 778.48 438.54 795.26 378.38 804.16 383.15 787.38 443.31"/><polygon class="cls-4" points="804.16 383.15 795.26 378.38 1059.39 326.11 1068.29 330.88 804.16 383.15"/><polygon class="cls-6" points="801.78 378.57 792.88 373.8 1076.69 317.63 1085.59 322.39 801.78 378.57"/><polygon class="cls-3" points="685.08 702.27 676.18 697.5 737.04 476.38 745.94 481.15 685.08 702.27"/><path class="cls-7" d="M801.78,378.57l283.81-56.18L984.38,410,780.51,449.7l19.75-70.84Zm180.45,26.77,86.06-74.47L804.16,383.15l-16.78,60.16,194.85-38"/><polygon class="cls-3" points="780.5 449.7 771.61 444.94 791.37 374.1 800.26 378.86 780.5 449.7"/><polygon class="cls-6" points="800.26 378.86 791.37 374.1 792.88 373.8 801.78 378.57 800.26 378.86"/><polygon class="cls-5" points="814.72 346.74 805.82 341.97 962.95 314.98 971.84 319.75 814.72 346.74"/><polygon class="cls-4" points="828.4 297.63 819.51 292.86 1032.16 256.05 1041.06 260.82 828.4 297.63"/><polygon class="cls-4" points="814.72 346.74 805.82 341.97 819.51 292.86 828.4 297.63 814.72 346.74"/><path class="cls-7" d="M824.53,293.26,1058,252.86l-84.06,71.57-.68.11L807.9,352.94Zm147.31,26.49,69.22-58.93L828.4,297.63l-13.68,49.11,157.12-27"/><polygon class="cls-4" points="1041.06 260.82 971.84 319.75 814.72 346.74 828.4 297.63 1041.06 260.82"/><polygon class="cls-4" points="631.29 712.65 622.39 707.89 651.84 594.21 660.74 598.98 631.29 712.65"/><polygon class="cls-5" points="824.53 293.26 815.63 288.49 1049.1 248.09 1057.99 252.86 824.53 293.26"/><polygon class="cls-3" points="807.9 352.94 799 348.17 815.63 288.49 824.53 293.26 807.9 352.94"/><polygon class="cls-6" points="837.42 268.67 828.53 263.9 1023.15 225.59 1032.05 230.36 837.42 268.67"/><polygon class="cls-3" points="624.58 718.99 615.69 714.23 646.07 596.93 654.97 601.7 624.58 718.99"/><polygon class="cls-4" points="1113.58 166.65 1032.05 230.36 837.42 268.67 850.5 218.72 1113.58 166.65"/><polygon class="cls-4" points="850.5 218.72 841.61 213.96 1104.68 161.88 1113.58 166.65 850.5 218.72"/><polygon class="cls-4" points="837.42 268.67 828.53 263.9 841.61 213.96 850.5 218.72 837.42 268.67"/><polygon class="cls-3" points="830.68 275.06 821.79 270.29 837.65 209.68 846.55 214.45 830.68 275.06"/><path class="cls-7" d="M846.55,214.45l286.39-56.69L1034.07,235l-203.39,40Zm185.5,15.91,81.53-63.71L850.5,218.72l-13.08,50,194.63-38.31"/><polygon class="cls-6" points="846.55 214.45 837.65 209.68 1124.04 153 1132.93 157.76 846.55 214.45"/><polygon class="cls-4" points="690.98 491.56 682.08 486.79 737.04 476.38 745.94 481.15 690.98 491.56"/><polygon class="cls-4" points="679.58 528.92 670.68 524.15 682.08 486.79 690.98 491.56 679.58 528.92"/><polygon class="cls-6" points="687.17 487.23 678.27 482.46 743.88 470.03 752.77 474.8 687.17 487.23"/><polygon class="cls-3" points="676.66 521.69 667.77 516.92 678.27 482.46 687.17 487.23 676.66 521.69"/><polygon class="cls-3" points="755.12 449.72 746.22 444.95 806.15 221.49 815.04 226.26 755.12 449.72"/><polygon class="cls-3" points="564.82 725.66 555.92 720.89 597.82 567.42 606.72 572.18 564.82 725.66"/><polygon class="cls-10" points="606.72 572.18 597.82 567.42 651.84 594.21 660.73 598.98 606.72 572.18"/><polygon class="cls-6" points="509.59 736.69 500.69 731.92 555.92 720.89 564.82 725.66 509.59 736.69"/><polygon class="cls-4" points="714.8 399.16 705.9 394.39 734.44 292.25 743.34 297.01 714.8 399.16"/><polygon class="cls-3" points="679.58 528.92 670.68 524.15 623.04 498.59 631.93 503.35 679.58 528.92"/><polygon class="cls-3" points="710.94 394.75 702.04 389.98 727.57 298.6 736.47 303.37 710.94 394.75"/><polygon class="cls-4" points="652.32 408.94 643.42 404.17 705.9 394.39 714.8 399.16 652.32 408.94"/><polygon class="cls-5" points="658.87 402.89 649.97 398.12 702.04 389.98 710.94 394.75 658.87 402.89"/><polygon class="cls-3" points="652.32 408.94 643.42 404.17 662.69 326.32 671.59 331.08 652.32 408.94"/><polygon class="cls-4" points="745.94 481.15 685.08 702.27 631.29 712.65 660.74 598.98 606.72 572.18 564.82 725.66 509.59 736.69 569.86 515.01 631.93 503.35 679.58 528.92 690.98 491.56 745.94 481.15"/><polygon class="cls-4" points="509.59 736.69 500.69 731.92 560.96 510.25 569.86 515.01 509.59 736.69"/><polygon class="cls-4" points="569.86 515.01 560.96 510.25 623.04 498.59 631.93 503.35 569.86 515.01"/><polygon class="cls-5" points="565.95 510.7 557.05 505.93 623.91 493.38 632.8 498.14 565.95 510.7"/><polygon class="cls-3" points="502.76 743.11 493.86 738.34 557.05 505.93 565.95 510.7 502.76 743.11"/><path class="cls-7" d="M687.17,487.23l65.6-12.43L689,706.57,624.58,719,655,601.7l-45.12-22.38L568.73,729.93l-66,13.18L566,510.7l66.85-12.56,43.86,23.55Zm-2.09,215,60.86-221.12-55,10.41-11.4,37.36-47.65-25.57L569.86,515,509.59,736.69l55.23-11,41.9-153.48,54,26.8L631.29,712.65l53.79-10.38"/><polygon class="cls-6" points="578.44 484.16 569.54 479.39 746.22 444.95 755.12 449.72 578.44 484.16"/><polygon class="cls-3" points="481.44 745.46 472.55 740.69 531.85 519.44 540.75 524.21 481.44 745.46"/><polygon class="cls-4" points="578.44 484.16 569.54 479.39 608.72 336.3 617.62 341.07 578.44 484.16"/><polygon class="cls-4" points="617.62 341.07 608.72 336.3 662.69 326.32 671.59 331.09 617.62 341.07"/><polygon class="cls-6" points="622.93 319.95 614.03 315.18 734.44 292.25 743.34 297.01 622.93 319.95"/><polygon class="cls-5" points="613.72 336.75 604.82 331.98 669.29 320.05 678.18 324.81 613.72 336.75"/><polygon class="cls-3" points="571.61 490.55 562.71 485.78 604.82 331.98 613.72 336.75 571.61 490.55"/><polygon class="cls-4" points="441.57 696.6 432.67 691.84 460.21 590.66 469.11 595.43 441.57 696.6"/><polygon class="cls-3" points="437.68 692.25 428.78 687.48 453.37 597.13 462.27 601.89 437.68 692.25"/><polygon class="cls-4" points="638.86 261.09 629.96 256.32 806.15 221.49 815.04 226.26 638.86 261.09"/><polygon class="cls-4" points="622.93 319.95 614.03 315.18 629.96 256.32 638.86 261.09 622.93 319.95"/><path class="cls-7" d="M634.94,256.81l186.89-36.95L759,454l-1.54.3L571.61,490.55l42.11-153.81,64.46-11.92-19.31,78.07,52.07-8.14,25.53-91.38L616.13,326.29ZM755.12,449.72,815,226.26,638.86,261.09,622.93,320,743.34,297,714.8,399.16l-62.48,9.78,19.27-77.85-54,10L578.44,484.16l176.68-34.44"/><polygon class="cls-4" points="815.04 226.26 755.12 449.72 578.44 484.16 617.62 341.07 671.59 331.09 652.32 408.94 714.8 399.16 743.34 297.01 622.93 319.95 638.86 261.09 815.04 226.26"/><polygon class="cls-6" points="634.94 256.81 626.05 252.04 812.93 215.09 821.83 219.86 634.94 256.81"/><polygon class="cls-3" points="616.13 326.29 607.23 321.52 626.05 252.04 634.94 256.81 616.13 326.29"/><polygon class="cls-6" points="495.36 500.25 486.46 495.48 541.49 484.51 550.38 489.28 495.36 500.25"/><polygon class="cls-4" points="378.97 707.47 370.08 702.7 432.67 691.84 441.57 696.6 378.97 707.47"/><polygon class="cls-5" points="385.7 701.26 376.81 696.5 428.78 687.48 437.68 692.25 385.7 701.26"/><polygon class="cls-3" points="550.38 489.28 541.49 484.51 602.26 262.7 611.16 267.47 550.38 489.28"/><polygon class="cls-4" points="495.36 500.25 486.46 495.48 498.57 446.15 507.46 450.92 495.36 500.25"/><polygon class="cls-3" points="488.75 506.63 479.85 501.86 492 452.3 500.9 457.07 488.75 506.63"/><polygon class="cls-3" points="378.97 707.47 370.08 702.7 396.57 603.69 405.47 608.45 378.97 707.47"/><polygon class="cls-6" points="405.47 608.45 396.57 603.69 460.21 590.66 469.11 595.43 405.47 608.45"/><path class="cls-7" d="M379,707.47l26.5-99,63.63-13L441.57,696.6Zm83.3-105.58L409.41,612.7l-23.7,88.56,52-9,24.59-90.36"/><polygon class="cls-6" points="304.34 780.31 295.45 775.55 472.55 740.69 481.44 745.46 304.34 780.31"/><polygon class="cls-4" points="524.56 389.02 515.66 384.25 526.45 335.66 535.35 340.43 524.56 389.02"/><polygon class="cls-3" points="520.49 384.69 511.59 379.92 520.08 341.72 528.97 346.48 520.49 384.69"/><polygon class="cls-3" points="430.4 512.71 421.5 507.95 435.08 457.01 443.97 461.77 430.4 512.71"/><polygon class="cls-5" points="443.97 461.77 435.08 457.01 498.57 446.15 507.46 450.92 443.97 461.77"/><polygon class="cls-4" points="461.9 399.89 453 395.13 515.66 384.25 524.56 389.02 461.9 399.89"/><polygon class="cls-5" points="468.59 393.7 459.69 388.93 511.59 379.92 520.49 384.69 468.59 393.7"/><polygon class="cls-4" points="366.57 558.54 357.67 553.78 531.85 519.44 540.75 524.21 366.57 558.54"/><path class="cls-4" d="M366.57,558.54l174.18-34.33L481.44,745.46l-177.1,34.85Zm75,138.06,27.54-101.17-63.64,13-26.5,99,62.6-10.87"/><polygon class="cls-4" points="304.34 780.31 295.45 775.55 357.67 553.78 366.57 558.54 304.34 780.31"/><polygon class="cls-3" points="461.9 399.89 453 395.13 465.96 345.41 474.86 350.18 461.9 399.89"/><polygon class="cls-5" points="474.86 350.18 465.96 345.41 526.45 335.66 535.35 340.43 474.86 350.18"/><polygon class="cls-6" points="374.88 523.69 365.99 518.92 421.5 507.95 430.4 512.71 374.88 523.69"/><polygon class="cls-4" points="435 301.35 426.1 296.58 602.26 262.7 611.16 267.47 435 301.35"/><polygon class="cls-4" points="374.88 523.69 365.99 518.92 426.1 296.58 435 301.35 374.88 523.69"/><path class="cls-7" d="M432.62,296.75,618,261.11,554.3,493.56l-65.55,13.07,12.15-49.56-53,9.06L434.33,517l-66.25,13.1,63-233ZM550.38,489.28l60.78-221.81L435,301.35,374.88,523.69l55.52-11L444,461.77l63.49-10.85-12.1,49.33,55-11"/><path class="cls-7" d="M461.9,399.9l13-49.72,60.49-9.75L524.56,389ZM529,346.48l-50.18,8.09-10.2,39.13,51.9-9L529,346.48"/><polygon class="cls-6" points="364.19 553.95 355.3 549.19 538.64 513.05 547.54 517.82 364.19 553.95"/><polygon class="cls-6" points="362.68 554.26 353.78 549.49 355.3 549.19 364.19 553.95 362.68 554.26"/><path class="cls-7" d="M364.19,554l183.35-36.14L485.37,749.75l-187.92,37,65.23-232.46ZM481.44,745.46l59.31-221.25L366.57,558.54,304.34,780.31l177.1-34.85"/><polygon class="cls-3" points="297.45 786.72 288.56 781.96 353.78 549.49 362.68 554.26 297.45 786.72"/><polygon class="cls-5" points="215.28 793.88 206.38 789.11 271.18 776.9 280.08 781.67 215.28 793.88"/><polygon class="cls-6" points="259.22 711.28 250.33 706.51 285.47 698.73 294.36 703.5 259.22 711.28"/><polygon class="cls-3" points="280.08 781.67 271.18 776.9 250.33 706.51 259.22 711.28 280.08 781.67"/><polygon class="cls-3" points="294.36 703.5 285.47 698.73 324.55 556.89 333.45 561.66 294.36 703.5"/><polygon class="cls-3" points="343.87 530.07 334.98 525.3 352.04 464.86 360.94 469.63 343.87 530.07"/><polygon class="cls-4" points="254.48 653.59 245.58 648.82 250.93 629.68 259.83 634.44 254.48 653.59"/><path class="cls-4" d="M435,301.35l176.16-33.88L550.38,489.28l-55,11,12.1-49.33L444,461.77,430.4,512.71l-55.52,11ZM524.56,389l10.79-48.59-60.49,9.75-13,49.72L524.56,389"/><polygon class="cls-3" points="250.59 649.29 241.69 644.52 244.07 636.01 252.97 640.78 250.59 649.29"/><polygon class="cls-6" points="432.62 296.75 423.73 291.98 609.09 256.34 617.99 261.11 432.62 296.75"/><polygon class="cls-6" points="431.08 297.05 422.18 292.28 423.73 291.98 432.62 296.75 431.08 297.05"/><polygon class="cls-3" points="368.08 530.09 359.18 525.32 422.18 292.28 431.08 297.05 368.08 530.09"/><polygon class="cls-4" points="215.28 793.88 206.38 789.11 186.34 719.82 195.24 724.59 215.28 793.88"/><polygon class="cls-3" points="211.78 799.59 202.89 794.82 182.71 725.08 191.61 729.84 211.78 799.59"/><polygon class="cls-3" points="390.4 367.55 381.51 362.78 397.48 301.98 406.37 306.75 390.4 367.55"/><polygon class="cls-11" points="174.05 726.18 165.15 721.42 186.34 719.82 195.24 724.59 174.05 726.18"/><polygon class="cls-3" points="151.89 806.6 142.99 801.83 165.15 721.42 174.05 726.18 151.89 806.6"/><polygon class="cls-4" points="192.1 665.48 183.2 660.72 245.58 648.82 254.48 653.59 192.1 665.48"/><polygon class="cls-6" points="198.42 659.23 189.52 654.46 241.69 644.52 250.59 649.29 198.42 659.23"/><polygon class="cls-5" points="196.09 646.41 187.2 641.65 250.93 629.68 259.83 634.44 196.09 646.41"/><polygon class="cls-3" points="192.1 665.48 183.2 660.72 187.2 641.65 196.09 646.41 192.1 665.48"/><polygon class="cls-6" points="96.96 817.28 88.06 812.51 142.99 801.83 151.89 806.6 96.96 817.28"/><polygon class="cls-4" points="157.29 595.54 148.4 590.77 324.55 556.89 333.45 561.66 157.29 595.54"/><polygon class="cls-4" points="96.96 817.28 88.06 812.51 148.4 590.77 157.29 595.54 96.96 817.28"/><path class="cls-7" d="M340.29,555.3l-42,152.4L265.48,715l20.9,70.55-74.6,14.07-20.17-69.75-13.77,1-22.05,80L90.14,823.66l63.24-232.42Zm-81.07,156,35.14-7.79,39.09-141.83L157.29,595.54,97,817.28l54.93-10.68,22.16-80.42,21.19-1.59,20,69.29,64.8-12.21-20.86-70.39"/><path class="cls-7" d="M192.1,665.48l4-19.07,63.74-12-5.35,19.15Zm8.11-14.79-1.79,8.54,52.17-9.94,2.38-8.51-52.76,9.91"/><polygon class="cls-4" points="243.55 490.53 234.65 485.76 352.04 464.86 360.94 469.63 243.55 490.53"/><polygon class="cls-5" points="250.25 484.3 241.35 479.53 358.9 458.6 367.8 463.36 250.25 484.3"/><polygon class="cls-3" points="243.55 490.53 234.65 485.76 261.12 384.73 270.02 389.5 243.55 490.53"/><polygon class="cls-5" points="270.02 389.5 261.12 384.73 381.51 362.78 390.4 367.55 270.02 389.5"/><path class="cls-4" d="M333.45,561.66,294.36,703.49l-35.14,7.79,20.86,70.39-64.8,12.21-20-69.29-21.19,1.59L151.89,806.6,97,817.28l60.33-221.74Zm-79,91.93,5.35-19.15-63.74,12-4,19.07,62.38-11.89"/><polygon class="cls-6" points="168.4 563.89 159.5 559.13 334.98 525.3 343.87 530.07 168.4 563.89"/><polygon class="cls-6" points="153.38 591.24 144.48 586.47 331.39 550.53 340.29 555.3 153.38 591.24"/><polygon class="cls-3" points="90.14 823.66 81.25 818.89 144.48 586.47 153.38 591.24 90.14 823.66"/><polygon class="cls-4" points="168.4 563.89 159.5 559.13 222.22 335.85 231.12 340.62 168.4 563.89"/><polygon class="cls-4" points="231.12 340.62 222.22 335.85 397.48 301.98 406.37 306.75 231.12 340.62"/><path class="cls-7" d="M394.34,371.87,274,393.83l-23.7,90.47L367.8,463.36l-20.05,71L161.51,570.28l65.72-234L413.11,300.4ZM243.55,490.53,270,389.5,390.4,367.55l16-60.8L231.12,340.62,168.4,563.89l175.47-33.82,17.07-60.44-117.39,20.9"/><polygon class="cls-4" points="406.37 306.75 390.4 367.55 270.02 389.5 243.55 490.53 360.94 469.63 343.87 530.07 168.4 563.89 231.12 340.62 406.37 306.75"/><polygon class="cls-3" points="161.51 570.28 152.62 565.51 218.33 331.55 227.23 336.31 161.51 570.28"/><polygon class="cls-6" points="227.23 336.31 218.33 331.55 404.21 295.63 413.11 300.4 227.23 336.31"/></g><g class="cls-2"><polygon class="cls-3" points="1176.01 740.19 1167.12 735.43 1351.88 2.53 1360.77 7.29 1176.01 740.19"/><polygon class="cls-4" points="1135.98 692.22 1127.09 687.45 1276.96 71.98 1285.86 76.75 1135.98 692.22"/><polygon class="cls-3" points="1134.98 690.4 1126.08 685.63 1274.68 73.02 1283.58 77.79 1134.98 690.4"/><polygon class="cls-5" points="145.46 914.76 136.56 909.99 1167.12 735.43 1176.01 740.19 145.46 914.76"/><g class="cls-2"><g class="cls-12"><g class="cls-2"><path class="cls-4" d="M145.46,914.76l-8.9-4.77c3.84-1.11,8.81-2.46,14.84-4l8.89,4.76c-6,1.57-11,2.92-14.83,4"/><path class="cls-4" d="M160.29,910.73,151.4,906c121.44-31.6,671-152.36,975.69-218.52l8.89,4.77C831.26,758.38,281.74,879.14,160.29,910.73"/></g></g></g><g class="cls-2"><g class="cls-13"><g class="cls-2"><path class="cls-14" d="M134.44,918.63l-8.9-4.77a2.13,2.13,0,0,1,1-2l8.89,4.77a2.11,2.11,0,0,0-1,2"/><path class="cls-15" d="M135.48,916.62l-8.89-4.77a10.77,10.77,0,0,1,1.69-.94l8.9,4.77a9.5,9.5,0,0,0-1.7.94"/><path class="cls-16" d="M137.18,915.68l-8.9-4.77c3.05-1.4,9.51-3.4,23.27-7l8.9,4.77c-13.76,3.58-20.23,5.59-23.27,7"/><path class="cls-17" d="M160.45,908.69l-8.9-4.77c4.94-1.29,10.82-2.78,17.83-4.52,26-6.45,64.09-15.49,113.36-26.86,83-19.13,198.67-45.16,343.87-77.34,241.2-53.45,485.46-106.52,499.47-109.57l8.9,4.77C1121,693.45,876.71,746.51,635.5,800c-145.19,32.18-260.89,58.2-343.87,77.34-49.27,11.37-87.41,20.4-113.36,26.86-7,1.74-12.88,3.23-17.82,4.52"/></g></g></g><polygon class="cls-6" points="165.52 294.94 156.63 290.17 1277.31 70.49 1286.21 75.25 165.52 294.94"/><polygon class="cls-3" points="13.21 806.8 4.31 802.04 156.63 290.17 165.52 294.94 13.21 806.8"/><polygon class="cls-4" points="126.1 246.83 117.2 242.06 1351.88 2.53 1360.78 7.3 126.1 246.83"/><polygon class="cls-4" points="13.21 806.8 4.31 802.04 117.2 242.06 126.1 246.83 13.21 806.8"/><path class="cls-4" d="M1360.78,7.3,1176,740.2,145.46,914.76c81.16-23.51,670.69-153.1,990.52-222.54L1285.86,76.75,165.52,294.94,13.21,806.8l112.89-560Z"/><polygon class="cls-3" points="8.9 828.16 0 823.39 115.55 240.37 124.44 245.13 8.9 828.16"/><path class="cls-7" d="M124.44,245.13l1239-240.36L1177.59,741.94,134.44,918.63c.07-2.42.08-3.59,43.83-14.46,25.95-6.46,64.09-15.49,113.36-26.86,83-19.14,198.68-45.16,343.87-77.34C876.71,746.51,1121,693.45,1135,690.4l148.6-612.61L167.06,296.66,8.9,828.16ZM1176,740.19,1360.77,7.3,126.09,246.83,13.2,806.8,165.52,294.94,1286.21,75.25,1136.59,692.08c-320.45,69.57-910,199.17-991.13,222.68L1176,740.19"/><polygon class="cls-6" points="124.44 245.13 115.55 240.37 1354.54 0 1363.44 4.77 124.44 245.13"/></g></g></g></svg>