<svg width="236" height="52" viewBox="0 0 236 52" fill="none" xmlns="http://www.w3.org/2000/svg">
<g filter="url(#filter0_d)">
<path d="M4.43605 11V1.22H6.85105L8.42605 5.57C8.52605 5.86 8.62105 6.16 8.71105 6.47C8.80105 6.77 8.89605 7.07 8.99605 7.37H9.05605C9.15605 7.07 9.24605 6.77 9.32605 6.47C9.41605 6.16 9.51105 5.86 9.61105 5.57L11.1561 1.22H13.5561V11H11.5461V7.415C11.5461 7.175 11.5561 6.91 11.5761 6.62C11.5961 6.33 11.6211 6.04 11.6511 5.75C11.6811 5.45 11.7111 5.16 11.7411 4.88C11.7711 4.59 11.8011 4.325 11.8311 4.085H11.7711L10.9761 6.41L9.58105 10.145H8.36605L6.97105 6.41L6.19105 4.085H6.13105C6.16105 4.325 6.19105 4.59 6.22105 4.88C6.25105 5.16 6.28105 5.45 6.31105 5.75C6.34105 6.04 6.36605 6.33 6.38605 6.62C6.40605 6.91 6.41605 7.175 6.41605 7.415V11H4.43605ZM19.3268 11.18C18.8568 11.18 18.4018 11.095 17.9618 10.925C17.5218 10.745 17.1318 10.49 16.7918 10.16C16.4618 9.83 16.1968 9.425 15.9968 8.945C15.7968 8.455 15.6968 7.9 15.6968 7.28C15.6968 6.66 15.7968 6.11 15.9968 5.63C16.1968 5.14 16.4618 4.73 16.7918 4.4C17.1318 4.07 17.5218 3.82 17.9618 3.65C18.4018 3.47 18.8568 3.38 19.3268 3.38C19.7968 3.38 20.2468 3.47 20.6768 3.65C21.1168 3.82 21.5018 4.07 21.8318 4.4C22.1718 4.73 22.4418 5.14 22.6418 5.63C22.8418 6.11 22.9418 6.66 22.9418 7.28C22.9418 7.9 22.8418 8.455 22.6418 8.945C22.4418 9.425 22.1718 9.83 21.8318 10.16C21.5018 10.49 21.1168 10.745 20.6768 10.925C20.2468 11.095 19.7968 11.18 19.3268 11.18ZM19.3268 9.395C19.7768 9.395 20.1168 9.205 20.3468 8.825C20.5768 8.445 20.6918 7.93 20.6918 7.28C20.6918 6.63 20.5768 6.115 20.3468 5.735C20.1168 5.355 19.7768 5.165 19.3268 5.165C18.8668 5.165 18.5218 5.355 18.2918 5.735C18.0718 6.115 17.9618 6.63 17.9618 7.28C17.9618 7.93 18.0718 8.445 18.2918 8.825C18.5218 9.205 18.8668 9.395 19.3268 9.395ZM27.1371 11.18C26.3271 11.18 25.7371 10.915 25.3671 10.385C25.0071 9.855 24.8271 9.12 24.8271 8.18V3.56H27.0321V7.895C27.0321 8.435 27.1071 8.805 27.2571 9.005C27.4071 9.205 27.6421 9.305 27.9621 9.305C28.2421 9.305 28.4771 9.24 28.6671 9.11C28.8571 8.98 29.0621 8.77 29.2821 8.48V3.56H31.4871V11H29.6871L29.5221 9.965H29.4771C29.1571 10.345 28.8121 10.645 28.4421 10.865C28.0821 11.075 27.6471 11.18 27.1371 11.18ZM36.0675 11.18C35.5775 11.18 35.0725 11.085 34.5525 10.895C34.0425 10.705 33.5975 10.455 33.2175 10.145L34.2075 8.765C34.5475 9.025 34.8725 9.22 35.1825 9.35C35.4925 9.48 35.8075 9.545 36.1275 9.545C36.4575 9.545 36.6975 9.49 36.8475 9.38C36.9975 9.27 37.0725 9.115 37.0725 8.915C37.0725 8.795 37.0275 8.69 36.9375 8.6C36.8575 8.5 36.7425 8.41 36.5925 8.33C36.4525 8.25 36.2925 8.18 36.1125 8.12C35.9325 8.05 35.7475 7.975 35.5575 7.895C35.3275 7.805 35.0975 7.7 34.8675 7.58C34.6375 7.46 34.4275 7.315 34.2375 7.145C34.0475 6.965 33.8925 6.76 33.7725 6.53C33.6525 6.29 33.5925 6.015 33.5925 5.705C33.5925 5.365 33.6575 5.05 33.7875 4.76C33.9275 4.47 34.1225 4.225 34.3725 4.025C34.6225 3.825 34.9225 3.67 35.2725 3.56C35.6225 3.44 36.0125 3.38 36.4425 3.38C37.0125 3.38 37.5125 3.48 37.9425 3.68C38.3725 3.87 38.7475 4.085 39.0675 4.325L38.0775 5.645C37.8075 5.445 37.5425 5.29 37.2825 5.18C37.0225 5.07 36.7625 5.015 36.5025 5.015C35.9425 5.015 35.6625 5.21 35.6625 5.6C35.6625 5.72 35.7025 5.825 35.7825 5.915C35.8625 5.995 35.9675 6.07 36.0975 6.14C36.2375 6.21 36.3925 6.28 36.5625 6.35C36.7425 6.41 36.9275 6.475 37.1175 6.545C37.3575 6.635 37.5925 6.74 37.8225 6.86C38.0625 6.97 38.2775 7.11 38.4675 7.28C38.6675 7.45 38.8275 7.66 38.9475 7.91C39.0675 8.15 39.1275 8.44 39.1275 8.78C39.1275 9.12 39.0625 9.435 38.9325 9.725C38.8025 10.015 38.6075 10.27 38.3475 10.49C38.0875 10.7 37.7675 10.87 37.3875 11C37.0075 11.12 36.5675 11.18 36.0675 11.18ZM44.2179 11.18C43.6979 11.18 43.2129 11.095 42.7629 10.925C42.3229 10.745 41.9379 10.49 41.6079 10.16C41.2779 9.83 41.0179 9.425 40.8279 8.945C40.6379 8.455 40.5429 7.9 40.5429 7.28C40.5429 6.66 40.6479 6.11 40.8579 5.63C41.0679 5.14 41.3479 4.73 41.6979 4.4C42.0579 4.07 42.4729 3.82 42.9429 3.65C43.4129 3.47 43.9029 3.38 44.4129 3.38C44.8729 3.38 45.2779 3.455 45.6279 3.605C45.9879 3.755 46.3079 3.945 46.5879 4.175L45.5529 5.6C45.2029 5.31 44.8679 5.165 44.5479 5.165C44.0079 5.165 43.5829 5.355 43.2729 5.735C42.9629 6.115 42.8079 6.63 42.8079 7.28C42.8079 7.93 42.9629 8.445 43.2729 8.825C43.5929 9.205 43.9929 9.395 44.4729 9.395C44.7129 9.395 44.9429 9.345 45.1629 9.245C45.3929 9.135 45.6079 9.005 45.8079 8.855L46.6779 10.295C46.3079 10.615 45.9079 10.845 45.4779 10.985C45.0479 11.115 44.6279 11.18 44.2179 11.18ZM48.4299 11V3.56H50.2299L50.3799 4.865H50.4399C50.7099 4.355 51.0349 3.98 51.4149 3.74C51.7949 3.5 52.1749 3.38 52.5549 3.38C52.7649 3.38 52.9349 3.395 53.0649 3.425C53.2049 3.445 53.3299 3.48 53.4399 3.53L53.0799 5.435C52.9399 5.395 52.8099 5.365 52.6899 5.345C52.5699 5.325 52.4299 5.315 52.2699 5.315C51.9899 5.315 51.6949 5.415 51.3849 5.615C51.0849 5.815 50.8349 6.17 50.6349 6.68V11H48.4299ZM57.905 11.18C57.435 11.18 56.98 11.095 56.54 10.925C56.1 10.745 55.71 10.49 55.37 10.16C55.04 9.83 54.775 9.425 54.575 8.945C54.375 8.455 54.275 7.9 54.275 7.28C54.275 6.66 54.375 6.11 54.575 5.63C54.775 5.14 55.04 4.73 55.37 4.4C55.71 4.07 56.1 3.82 56.54 3.65C56.98 3.47 57.435 3.38 57.905 3.38C58.375 3.38 58.825 3.47 59.255 3.65C59.695 3.82 60.08 4.07 60.41 4.4C60.75 4.73 61.02 5.14 61.22 5.63C61.42 6.11 61.52 6.66 61.52 7.28C61.52 7.9 61.42 8.455 61.22 8.945C61.02 9.425 60.75 9.83 60.41 10.16C60.08 10.49 59.695 10.745 59.255 10.925C58.825 11.095 58.375 11.18 57.905 11.18ZM57.905 9.395C58.355 9.395 58.695 9.205 58.925 8.825C59.155 8.445 59.27 7.93 59.27 7.28C59.27 6.63 59.155 6.115 58.925 5.735C58.695 5.355 58.355 5.165 57.905 5.165C57.445 5.165 57.1 5.355 56.87 5.735C56.65 6.115 56.54 6.63 56.54 7.28C56.54 7.93 56.65 8.445 56.87 8.825C57.1 9.205 57.445 9.395 57.905 9.395ZM63.4803 11V3.56H65.2803L65.4303 4.505H65.4903C65.8103 4.205 66.1603 3.945 66.5403 3.725C66.9203 3.495 67.3653 3.38 67.8753 3.38C68.6853 3.38 69.2703 3.645 69.6303 4.175C70.0003 4.705 70.1853 5.44 70.1853 6.38V11H67.9803V6.665C67.9803 6.125 67.9053 5.755 67.7553 5.555C67.6153 5.355 67.3853 5.255 67.0653 5.255C66.7853 5.255 66.5453 5.32 66.3453 5.45C66.1453 5.57 65.9253 5.745 65.6853 5.975V11H63.4803ZM76.1472 11V1.22H82.2672V3.08H78.3522V5.045H81.6822V6.89H78.3522V9.14H82.4172V11H76.1472ZM86.87 11.18C86.06 11.18 85.47 10.915 85.1 10.385C84.74 9.855 84.56 9.12 84.56 8.18V3.56H86.765V7.895C86.765 8.435 86.84 8.805 86.99 9.005C87.14 9.205 87.375 9.305 87.695 9.305C87.975 9.305 88.21 9.24 88.4 9.11C88.59 8.98 88.795 8.77 89.015 8.48V3.56H91.22V11H89.42L89.255 9.965H89.21C88.89 10.345 88.545 10.645 88.175 10.865C87.815 11.075 87.38 11.18 86.87 11.18ZM93.6103 11V3.56H95.4103L95.5603 4.865H95.6203C95.8903 4.355 96.2153 3.98 96.5953 3.74C96.9753 3.5 97.3553 3.38 97.7353 3.38C97.9453 3.38 98.1153 3.395 98.2453 3.425C98.3853 3.445 98.5103 3.48 98.6203 3.53L98.2603 5.435C98.1203 5.395 97.9903 5.365 97.8703 5.345C97.7503 5.325 97.6103 5.315 97.4503 5.315C97.1703 5.315 96.8753 5.415 96.5653 5.615C96.2653 5.815 96.0153 6.17 95.8153 6.68V11H93.6103ZM103.085 11.18C102.615 11.18 102.16 11.095 101.72 10.925C101.28 10.745 100.89 10.49 100.55 10.16C100.22 9.83 99.9554 9.425 99.7554 8.945C99.5554 8.455 99.4554 7.9 99.4554 7.28C99.4554 6.66 99.5554 6.11 99.7554 5.63C99.9554 5.14 100.22 4.73 100.55 4.4C100.89 4.07 101.28 3.82 101.72 3.65C102.16 3.47 102.615 3.38 103.085 3.38C103.555 3.38 104.005 3.47 104.435 3.65C104.875 3.82 105.26 4.07 105.59 4.4C105.93 4.73 106.2 5.14 106.4 5.63C106.6 6.11 106.7 6.66 106.7 7.28C106.7 7.9 106.6 8.455 106.4 8.945C106.2 9.425 105.93 9.83 105.59 10.16C105.26 10.49 104.875 10.745 104.435 10.925C104.005 11.095 103.555 11.18 103.085 11.18ZM103.085 9.395C103.535 9.395 103.875 9.205 104.105 8.825C104.335 8.445 104.45 7.93 104.45 7.28C104.45 6.63 104.335 6.115 104.105 5.735C103.875 5.355 103.535 5.165 103.085 5.165C102.625 5.165 102.28 5.355 102.05 5.735C101.83 6.115 101.72 6.63 101.72 7.28C101.72 7.93 101.83 8.445 102.05 8.825C102.28 9.205 102.625 9.395 103.085 9.395ZM108.661 11V3.56H110.461L110.611 4.52H110.671C110.981 4.21 111.311 3.945 111.661 3.725C112.011 3.495 112.431 3.38 112.921 3.38C113.451 3.38 113.876 3.49 114.196 3.71C114.526 3.92 114.786 4.225 114.976 4.625C115.306 4.285 115.651 3.995 116.011 3.755C116.381 3.505 116.816 3.38 117.316 3.38C118.116 3.38 118.701 3.65 119.071 4.19C119.451 4.72 119.641 5.45 119.641 6.38V11H117.436V6.665C117.436 6.125 117.361 5.755 117.211 5.555C117.071 5.355 116.841 5.255 116.521 5.255C116.151 5.255 115.726 5.495 115.246 5.975V11H113.041V6.665C113.041 6.125 112.966 5.755 112.816 5.555C112.676 5.355 112.446 5.255 112.126 5.255C111.746 5.255 111.326 5.495 110.866 5.975V11H108.661ZM125.302 11.18C124.772 11.18 124.277 11.095 123.817 10.925C123.357 10.745 122.957 10.49 122.617 10.16C122.277 9.82 122.012 9.41 121.822 8.93C121.632 8.45 121.537 7.9 121.537 7.28C121.537 6.68 121.637 6.14 121.837 5.66C122.037 5.17 122.297 4.76 122.617 4.43C122.947 4.09 123.322 3.83 123.742 3.65C124.162 3.47 124.597 3.38 125.047 3.38C125.577 3.38 126.037 3.47 126.427 3.65C126.827 3.83 127.157 4.08 127.417 4.4C127.687 4.72 127.887 5.1 128.017 5.54C128.147 5.97 128.212 6.44 128.212 6.95C128.212 7.15 128.202 7.34 128.182 7.52C128.162 7.7 128.142 7.835 128.122 7.925H123.667C123.767 8.465 123.987 8.865 124.327 9.125C124.677 9.375 125.102 9.5 125.602 9.5C126.132 9.5 126.667 9.335 127.207 9.005L127.942 10.34C127.562 10.6 127.137 10.805 126.667 10.955C126.207 11.105 125.752 11.18 125.302 11.18ZM123.652 6.47H126.337C126.337 6.05 126.242 5.71 126.052 5.45C125.862 5.19 125.542 5.06 125.092 5.06C124.742 5.06 124.432 5.175 124.162 5.405C123.902 5.635 123.732 5.99 123.652 6.47ZM132.904 11.18C132.444 11.18 132.049 11.11 131.719 10.97C131.399 10.83 131.134 10.635 130.924 10.385C130.724 10.135 130.574 9.835 130.474 9.485C130.384 9.125 130.339 8.73 130.339 8.3V5.285H129.319V3.65L130.459 3.56L130.714 1.58H132.544V3.56H134.329V5.285H132.544V8.27C132.544 8.69 132.629 8.995 132.799 9.185C132.979 9.365 133.214 9.455 133.504 9.455C133.624 9.455 133.744 9.44 133.864 9.41C133.994 9.38 134.109 9.345 134.209 9.305L134.554 10.91C134.354 10.97 134.119 11.03 133.849 11.09C133.579 11.15 133.264 11.18 132.904 11.18ZM136.231 11V3.56H138.031L138.181 4.865H138.241C138.511 4.355 138.836 3.98 139.216 3.74C139.596 3.5 139.976 3.38 140.356 3.38C140.566 3.38 140.736 3.395 140.866 3.425C141.006 3.445 141.131 3.48 141.241 3.53L140.881 5.435C140.741 5.395 140.611 5.365 140.491 5.345C140.371 5.325 140.231 5.315 140.071 5.315C139.791 5.315 139.496 5.415 139.186 5.615C138.886 5.815 138.636 6.17 138.436 6.68V11H136.231ZM145.707 11.18C145.237 11.18 144.782 11.095 144.342 10.925C143.902 10.745 143.512 10.49 143.172 10.16C142.842 9.83 142.577 9.425 142.377 8.945C142.177 8.455 142.077 7.9 142.077 7.28C142.077 6.66 142.177 6.11 142.377 5.63C142.577 5.14 142.842 4.73 143.172 4.4C143.512 4.07 143.902 3.82 144.342 3.65C144.782 3.47 145.237 3.38 145.707 3.38C146.177 3.38 146.627 3.47 147.057 3.65C147.497 3.82 147.882 4.07 148.212 4.4C148.552 4.73 148.822 5.14 149.022 5.63C149.222 6.11 149.322 6.66 149.322 7.28C149.322 7.9 149.222 8.455 149.022 8.945C148.822 9.425 148.552 9.83 148.212 10.16C147.882 10.49 147.497 10.745 147.057 10.925C146.627 11.095 146.177 11.18 145.707 11.18ZM145.707 9.395C146.157 9.395 146.497 9.205 146.727 8.825C146.957 8.445 147.072 7.93 147.072 7.28C147.072 6.63 146.957 6.115 146.727 5.735C146.497 5.355 146.157 5.165 145.707 5.165C145.247 5.165 144.902 5.355 144.672 5.735C144.452 6.115 144.342 6.63 144.342 7.28C144.342 7.93 144.452 8.445 144.672 8.825C144.902 9.205 145.247 9.395 145.707 9.395ZM151.282 13.76V3.56H153.082L153.232 4.295H153.292C153.582 4.035 153.907 3.82 154.267 3.65C154.637 3.47 155.017 3.38 155.407 3.38C155.857 3.38 156.262 3.47 156.622 3.65C156.982 3.83 157.287 4.085 157.537 4.415C157.787 4.745 157.977 5.145 158.107 5.615C158.247 6.075 158.317 6.59 158.317 7.16C158.317 7.8 158.227 8.37 158.047 8.87C157.877 9.36 157.642 9.78 157.342 10.13C157.052 10.47 156.717 10.73 156.337 10.91C155.967 11.09 155.582 11.18 155.182 11.18C154.862 11.18 154.552 11.115 154.252 10.985C153.952 10.845 153.672 10.65 153.412 10.4L153.487 11.585V13.76H151.282ZM154.672 9.38C155.052 9.38 155.377 9.21 155.647 8.87C155.917 8.52 156.052 7.96 156.052 7.19C156.052 5.85 155.622 5.18 154.762 5.18C154.332 5.18 153.907 5.405 153.487 5.855V8.9C153.687 9.08 153.887 9.205 154.087 9.275C154.287 9.345 154.482 9.38 154.672 9.38ZM163.525 11.18C163.055 11.18 162.6 11.095 162.16 10.925C161.72 10.745 161.33 10.49 160.99 10.16C160.66 9.83 160.395 9.425 160.195 8.945C159.995 8.455 159.895 7.9 159.895 7.28C159.895 6.66 159.995 6.11 160.195 5.63C160.395 5.14 160.66 4.73 160.99 4.4C161.33 4.07 161.72 3.82 162.16 3.65C162.6 3.47 163.055 3.38 163.525 3.38C163.995 3.38 164.445 3.47 164.875 3.65C165.315 3.82 165.7 4.07 166.03 4.4C166.37 4.73 166.64 5.14 166.84 5.63C167.04 6.11 167.14 6.66 167.14 7.28C167.14 7.9 167.04 8.455 166.84 8.945C166.64 9.425 166.37 9.83 166.03 10.16C165.7 10.49 165.315 10.745 164.875 10.925C164.445 11.095 163.995 11.18 163.525 11.18ZM163.525 9.395C163.975 9.395 164.315 9.205 164.545 8.825C164.775 8.445 164.89 7.93 164.89 7.28C164.89 6.63 164.775 6.115 164.545 5.735C164.315 5.355 163.975 5.165 163.525 5.165C163.065 5.165 162.72 5.355 162.49 5.735C162.27 6.115 162.16 6.63 162.16 7.28C162.16 7.93 162.27 8.445 162.49 8.825C162.72 9.205 163.065 9.395 163.525 9.395ZM171.126 11.18C170.746 11.18 170.426 11.12 170.166 11C169.906 10.88 169.696 10.715 169.536 10.505C169.386 10.285 169.276 10.025 169.206 9.725C169.136 9.415 169.101 9.07 169.101 8.69V0.484999H171.306V8.78C171.306 9.01 171.346 9.17 171.426 9.26C171.516 9.35 171.606 9.395 171.696 9.395C171.746 9.395 171.786 9.395 171.816 9.395C171.856 9.395 171.906 9.385 171.966 9.365L172.236 11C172.116 11.05 171.961 11.09 171.771 11.12C171.591 11.16 171.376 11.18 171.126 11.18ZM173.843 11V3.56H176.048V11H173.843ZM174.938 2.465C174.568 2.465 174.263 2.36 174.023 2.15C173.783 1.93 173.663 1.65 173.663 1.31C173.663 0.97 173.783 0.695 174.023 0.484999C174.263 0.274999 174.568 0.169999 174.938 0.169999C175.318 0.169999 175.623 0.274999 175.853 0.484999C176.093 0.695 176.213 0.97 176.213 1.31C176.213 1.65 176.093 1.93 175.853 2.15C175.623 2.36 175.318 2.465 174.938 2.465ZM181.303 11.18C180.843 11.18 180.448 11.11 180.118 10.97C179.798 10.83 179.533 10.635 179.323 10.385C179.123 10.135 178.973 9.835 178.873 9.485C178.783 9.125 178.738 8.73 178.738 8.3V5.285H177.718V3.65L178.858 3.56L179.113 1.58H180.943V3.56H182.728V5.285H180.943V8.27C180.943 8.69 181.028 8.995 181.198 9.185C181.378 9.365 181.613 9.455 181.903 9.455C182.023 9.455 182.143 9.44 182.263 9.41C182.393 9.38 182.508 9.345 182.608 9.305L182.953 10.91C182.753 10.97 182.518 11.03 182.248 11.09C181.978 11.15 181.663 11.18 181.303 11.18ZM186.213 11.18C185.873 11.18 185.563 11.12 185.283 11C185.013 10.89 184.783 10.735 184.593 10.535C184.403 10.325 184.253 10.085 184.143 9.815C184.043 9.545 183.993 9.25 183.993 8.93C183.993 8.15 184.323 7.54 184.983 7.1C185.643 6.66 186.708 6.365 188.178 6.215C188.158 5.885 188.058 5.625 187.878 5.435C187.708 5.235 187.418 5.135 187.008 5.135C186.688 5.135 186.368 5.195 186.048 5.315C185.738 5.435 185.403 5.6 185.043 5.81L184.248 4.355C184.728 4.065 185.228 3.83 185.748 3.65C186.278 3.47 186.838 3.38 187.428 3.38C188.388 3.38 189.118 3.655 189.618 4.205C190.128 4.745 190.383 5.59 190.383 6.74V11H188.583L188.433 10.235H188.373C188.053 10.515 187.718 10.745 187.368 10.925C187.018 11.095 186.633 11.18 186.213 11.18ZM186.963 9.47C187.213 9.47 187.428 9.415 187.608 9.305C187.788 9.195 187.978 9.04 188.178 8.84V7.535C187.398 7.645 186.858 7.805 186.558 8.015C186.258 8.225 186.108 8.475 186.108 8.765C186.108 9.005 186.183 9.185 186.333 9.305C186.493 9.415 186.703 9.47 186.963 9.47ZM192.698 11V3.56H194.498L194.648 4.505H194.708C195.028 4.205 195.378 3.945 195.758 3.725C196.138 3.495 196.583 3.38 197.093 3.38C197.903 3.38 198.488 3.645 198.848 4.175C199.218 4.705 199.403 5.44 199.403 6.38V11H197.198V6.665C197.198 6.125 197.123 5.755 196.973 5.555C196.833 5.355 196.603 5.255 196.283 5.255C196.003 5.255 195.763 5.32 195.563 5.45C195.363 5.57 195.143 5.745 194.903 5.975V11H192.698ZM209.445 11.18C208.825 11.18 208.24 11.075 207.69 10.865C207.14 10.645 206.655 10.325 206.235 9.905C205.825 9.485 205.5 8.965 205.26 8.345C205.02 7.715 204.9 6.99 204.9 6.17C204.9 5.36 205.025 4.64 205.275 4.01C205.525 3.37 205.86 2.83 206.28 2.39C206.7 1.95 207.19 1.615 207.75 1.385C208.31 1.155 208.9 1.04 209.52 1.04C210.15 1.04 210.715 1.17 211.215 1.43C211.715 1.68 212.13 1.975 212.46 2.315L211.29 3.725C211.04 3.495 210.775 3.31 210.495 3.17C210.225 3.02 209.915 2.945 209.565 2.945C209.235 2.945 208.92 3.02 208.62 3.17C208.33 3.31 208.075 3.515 207.855 3.785C207.645 4.055 207.475 4.385 207.345 4.775C207.225 5.165 207.165 5.605 207.165 6.095C207.165 7.105 207.38 7.89 207.81 8.45C208.24 9 208.815 9.275 209.535 9.275C209.935 9.275 210.29 9.19 210.6 9.02C210.92 8.84 211.2 8.62 211.44 8.36L212.61 9.74C211.79 10.7 210.735 11.18 209.445 11.18ZM214.365 11V3.56H216.57V11H214.365ZM215.46 2.465C215.09 2.465 214.785 2.36 214.545 2.15C214.305 1.93 214.185 1.65 214.185 1.31C214.185 0.97 214.305 0.695 214.545 0.484999C214.785 0.274999 215.09 0.169999 215.46 0.169999C215.84 0.169999 216.145 0.274999 216.375 0.484999C216.615 0.695 216.735 0.97 216.735 1.31C216.735 1.65 216.615 1.93 216.375 2.15C216.145 2.36 215.84 2.465 215.46 2.465ZM221.826 11.18C221.366 11.18 220.971 11.11 220.641 10.97C220.321 10.83 220.056 10.635 219.846 10.385C219.646 10.135 219.496 9.835 219.396 9.485C219.306 9.125 219.261 8.73 219.261 8.3V5.285H218.241V3.65L219.381 3.56L219.636 1.58H221.466V3.56H223.251V5.285H221.466V8.27C221.466 8.69 221.551 8.995 221.721 9.185C221.901 9.365 222.136 9.455 222.426 9.455C222.546 9.455 222.666 9.44 222.786 9.41C222.916 9.38 223.031 9.345 223.131 9.305L223.476 10.91C223.276 10.97 223.041 11.03 222.771 11.09C222.501 11.15 222.186 11.18 221.826 11.18ZM225.978 13.91C225.748 13.91 225.553 13.895 225.393 13.865C225.233 13.845 225.078 13.81 224.928 13.76L225.318 12.08C225.388 12.1 225.468 12.12 225.558 12.14C225.648 12.16 225.733 12.17 225.813 12.17C226.183 12.17 226.468 12.08 226.668 11.9C226.868 11.72 227.018 11.485 227.118 11.195L227.223 10.805L224.358 3.56H226.578L227.643 6.755C227.753 7.095 227.853 7.44 227.943 7.79C228.033 8.14 228.128 8.5 228.228 8.87H228.288C228.368 8.52 228.448 8.17 228.528 7.82C228.618 7.46 228.708 7.105 228.798 6.755L229.698 3.56H231.813L229.233 11.075C229.053 11.545 228.863 11.955 228.663 12.305C228.473 12.665 228.248 12.96 227.988 13.19C227.738 13.43 227.448 13.61 227.118 13.73C226.798 13.85 226.418 13.91 225.978 13.91ZM114.552 41V31.19H117.867C118.377 31.19 118.852 31.24 119.292 31.34C119.732 31.44 120.112 31.605 120.432 31.835C120.752 32.055 121.002 32.35 121.182 32.72C121.372 33.09 121.467 33.55 121.467 34.1C121.467 34.85 121.287 35.455 120.927 35.915C120.577 36.375 120.107 36.705 119.517 36.905L121.857 41H119.907L117.792 37.16H116.292V41H114.552ZM116.292 35.78H117.687C118.357 35.78 118.867 35.64 119.217 35.36C119.577 35.08 119.757 34.66 119.757 34.1C119.757 33.53 119.577 33.135 119.217 32.915C118.867 32.695 118.357 32.585 117.687 32.585H116.292V35.78ZM126.597 41.18C126.137 41.18 125.697 41.095 125.277 40.925C124.857 40.755 124.482 40.505 124.152 40.175C123.832 39.845 123.577 39.44 123.387 38.96C123.197 38.48 123.102 37.935 123.102 37.325C123.102 36.715 123.197 36.17 123.387 35.69C123.577 35.21 123.832 34.805 124.152 34.475C124.482 34.145 124.857 33.895 125.277 33.725C125.697 33.545 126.137 33.455 126.597 33.455C127.057 33.455 127.497 33.545 127.917 33.725C128.347 33.895 128.722 34.145 129.042 34.475C129.362 34.805 129.617 35.21 129.807 35.69C130.007 36.17 130.107 36.715 130.107 37.325C130.107 37.935 130.007 38.48 129.807 38.96C129.617 39.44 129.362 39.845 129.042 40.175C128.722 40.505 128.347 40.755 127.917 40.925C127.497 41.095 127.057 41.18 126.597 41.18ZM126.597 39.77C127.137 39.77 127.562 39.55 127.872 39.11C128.182 38.66 128.337 38.065 128.337 37.325C128.337 36.575 128.182 35.98 127.872 35.54C127.562 35.09 127.137 34.865 126.597 34.865C126.057 34.865 125.632 35.09 125.322 35.54C125.022 35.98 124.872 36.575 124.872 37.325C124.872 38.065 125.022 38.66 125.322 39.11C125.632 39.55 126.057 39.77 126.597 39.77ZM134.845 41.18C133.915 41.18 133.175 40.845 132.625 40.175C132.085 39.495 131.815 38.545 131.815 37.325C131.815 36.725 131.9 36.185 132.07 35.705C132.25 35.225 132.485 34.82 132.775 34.49C133.065 34.16 133.395 33.905 133.765 33.725C134.145 33.545 134.535 33.455 134.935 33.455C135.355 33.455 135.71 33.53 136 33.68C136.29 33.82 136.58 34.015 136.87 34.265L136.81 33.08V30.41H138.535V41H137.11L136.99 40.205H136.93C136.66 40.475 136.345 40.705 135.985 40.895C135.625 41.085 135.245 41.18 134.845 41.18ZM135.265 39.755C135.815 39.755 136.33 39.48 136.81 38.93V35.495C136.55 35.265 136.295 35.105 136.045 35.015C135.805 34.925 135.56 34.88 135.31 34.88C134.83 34.88 134.425 35.09 134.095 35.51C133.765 35.93 133.6 36.53 133.6 37.31C133.6 38.11 133.74 38.72 134.02 39.14C134.31 39.55 134.725 39.755 135.265 39.755ZM141.181 41V33.635H142.906V41H141.181ZM142.051 32.345C141.741 32.345 141.486 32.255 141.286 32.075C141.086 31.895 140.986 31.66 140.986 31.37C140.986 31.08 141.086 30.845 141.286 30.665C141.486 30.475 141.741 30.38 142.051 30.38C142.361 30.38 142.616 30.475 142.816 30.665C143.016 30.845 143.116 31.08 143.116 31.37C143.116 31.66 143.016 31.895 142.816 32.075C142.616 32.255 142.361 32.345 142.051 32.345ZM145.557 41V33.635H146.982L147.102 34.625H147.162C147.492 34.305 147.847 34.03 148.227 33.8C148.617 33.57 149.067 33.455 149.577 33.455C150.367 33.455 150.942 33.71 151.302 34.22C151.662 34.72 151.842 35.44 151.842 36.38V41H150.117V36.605C150.117 35.995 150.027 35.565 149.847 35.315C149.667 35.065 149.372 34.94 148.962 34.94C148.642 34.94 148.357 35.02 148.107 35.18C147.867 35.33 147.592 35.555 147.282 35.855V41H145.557ZM158.004 41V31.19H160.629C162.129 31.19 163.299 31.595 164.139 32.405C164.979 33.215 165.399 34.43 165.399 36.05C165.399 36.86 165.289 37.575 165.069 38.195C164.859 38.815 164.549 39.335 164.139 39.755C163.739 40.165 163.249 40.475 162.669 40.685C162.099 40.895 161.449 41 160.719 41H158.004ZM159.744 39.59H160.509C161.509 39.59 162.274 39.305 162.804 38.735C163.344 38.155 163.614 37.26 163.614 36.05C163.614 34.85 163.344 33.975 162.804 33.425C162.264 32.875 161.499 32.6 160.509 32.6H159.744V39.59ZM170.829 41.18C170.319 41.18 169.844 41.095 169.404 40.925C168.964 40.745 168.579 40.49 168.249 40.16C167.919 39.83 167.659 39.43 167.469 38.96C167.289 38.48 167.199 37.935 167.199 37.325C167.199 36.725 167.294 36.185 167.484 35.705C167.674 35.225 167.924 34.82 168.234 34.49C168.554 34.16 168.919 33.905 169.329 33.725C169.739 33.545 170.159 33.455 170.589 33.455C171.089 33.455 171.529 33.54 171.909 33.71C172.289 33.88 172.604 34.12 172.854 34.43C173.114 34.74 173.309 35.11 173.439 35.54C173.569 35.97 173.634 36.44 173.634 36.95C173.634 37.12 173.624 37.28 173.604 37.43C173.594 37.58 173.579 37.7 173.559 37.79H168.879C168.959 38.45 169.189 38.96 169.569 39.32C169.959 39.67 170.454 39.845 171.054 39.845C171.374 39.845 171.669 39.8 171.939 39.71C172.219 39.61 172.494 39.475 172.764 39.305L173.349 40.385C172.999 40.615 172.609 40.805 172.179 40.955C171.749 41.105 171.299 41.18 170.829 41.18ZM168.864 36.62H172.134C172.134 36.05 172.009 35.605 171.759 35.285C171.519 34.955 171.144 34.79 170.634 34.79C170.194 34.79 169.809 34.945 169.479 35.255C169.149 35.565 168.944 36.02 168.864 36.62ZM177.786 41.18C177.276 41.18 176.771 41.085 176.271 40.895C175.781 40.695 175.356 40.45 174.996 40.16L175.806 39.05C176.136 39.31 176.461 39.515 176.781 39.665C177.111 39.805 177.466 39.875 177.846 39.875C178.246 39.875 178.541 39.795 178.731 39.635C178.921 39.465 179.016 39.25 179.016 38.99C179.016 38.84 178.971 38.71 178.881 38.6C178.791 38.48 178.671 38.375 178.521 38.285C178.371 38.195 178.201 38.115 178.011 38.045C177.821 37.965 177.631 37.885 177.441 37.805C177.201 37.715 176.956 37.61 176.706 37.49C176.456 37.37 176.231 37.225 176.031 37.055C175.841 36.885 175.681 36.69 175.551 36.47C175.431 36.24 175.371 35.97 175.371 35.66C175.371 35.01 175.611 34.48 176.091 34.07C176.571 33.66 177.226 33.455 178.056 33.455C178.566 33.455 179.026 33.545 179.436 33.725C179.846 33.905 180.201 34.11 180.501 34.34L179.706 35.39C179.446 35.2 179.181 35.05 178.911 34.94C178.651 34.82 178.376 34.76 178.086 34.76C177.716 34.76 177.441 34.84 177.261 35C177.091 35.15 177.006 35.34 177.006 35.57C177.006 35.72 177.046 35.85 177.126 35.96C177.216 36.06 177.331 36.15 177.471 36.23C177.611 36.31 177.771 36.385 177.951 36.455C178.141 36.525 178.336 36.595 178.536 36.665C178.786 36.755 179.036 36.86 179.286 36.98C179.536 37.09 179.761 37.23 179.961 37.4C180.171 37.57 180.336 37.78 180.456 38.03C180.586 38.27 180.651 38.56 180.651 38.9C180.651 39.22 180.586 39.52 180.456 39.8C180.336 40.07 180.156 40.31 179.916 40.52C179.676 40.72 179.376 40.88 179.016 41C178.656 41.12 178.246 41.18 177.786 41.18ZM182.641 43.91V33.635H184.066L184.186 34.415H184.246C184.556 34.155 184.901 33.93 185.281 33.74C185.661 33.55 186.056 33.455 186.466 33.455C186.926 33.455 187.331 33.545 187.681 33.725C188.041 33.895 188.346 34.145 188.596 34.475C188.846 34.805 189.036 35.2 189.166 35.66C189.296 36.12 189.361 36.635 189.361 37.205C189.361 37.835 189.271 38.4 189.091 38.9C188.921 39.39 188.691 39.805 188.401 40.145C188.111 40.475 187.776 40.73 187.396 40.91C187.016 41.09 186.621 41.18 186.211 41.18C185.891 41.18 185.571 41.11 185.251 40.97C184.931 40.83 184.621 40.63 184.321 40.37L184.366 41.6V43.91H182.641ZM185.851 39.755C186.341 39.755 186.751 39.545 187.081 39.125C187.411 38.695 187.576 38.06 187.576 37.22C187.576 36.48 187.451 35.905 187.201 35.495C186.951 35.085 186.546 34.88 185.986 34.88C185.466 34.88 184.926 35.155 184.366 35.705V39.14C184.636 39.37 184.896 39.53 185.146 39.62C185.396 39.71 185.631 39.755 185.851 39.755ZM193.238 41.18C192.618 41.18 192.183 40.995 191.933 40.625C191.683 40.255 191.558 39.75 191.558 39.11V30.41H193.283V39.2C193.283 39.41 193.323 39.56 193.403 39.65C193.483 39.73 193.568 39.77 193.658 39.77C193.698 39.77 193.733 39.77 193.763 39.77C193.803 39.77 193.858 39.76 193.928 39.74L194.153 41.03C193.923 41.13 193.618 41.18 193.238 41.18ZM199.23 41.18C198.72 41.18 198.245 41.095 197.805 40.925C197.365 40.745 196.98 40.49 196.65 40.16C196.32 39.83 196.06 39.43 195.87 38.96C195.69 38.48 195.6 37.935 195.6 37.325C195.6 36.725 195.695 36.185 195.885 35.705C196.075 35.225 196.325 34.82 196.635 34.49C196.955 34.16 197.32 33.905 197.73 33.725C198.14 33.545 198.56 33.455 198.99 33.455C199.49 33.455 199.93 33.54 200.31 33.71C200.69 33.88 201.005 34.12 201.255 34.43C201.515 34.74 201.71 35.11 201.84 35.54C201.97 35.97 202.035 36.44 202.035 36.95C202.035 37.12 202.025 37.28 202.005 37.43C201.995 37.58 201.98 37.7 201.96 37.79H197.28C197.36 38.45 197.59 38.96 197.97 39.32C198.36 39.67 198.855 39.845 199.455 39.845C199.775 39.845 200.07 39.8 200.34 39.71C200.62 39.61 200.895 39.475 201.165 39.305L201.75 40.385C201.4 40.615 201.01 40.805 200.58 40.955C200.15 41.105 199.7 41.18 199.23 41.18ZM197.265 36.62H200.535C200.535 36.05 200.41 35.605 200.16 35.285C199.92 34.955 199.545 34.79 199.035 34.79C198.595 34.79 198.21 34.945 197.88 35.255C197.55 35.565 197.345 36.02 197.265 36.62ZM207.208 41.18C206.708 41.18 206.238 41.095 205.798 40.925C205.368 40.755 204.993 40.505 204.673 40.175C204.353 39.845 204.103 39.44 203.923 38.96C203.743 38.48 203.653 37.935 203.653 37.325C203.653 36.715 203.753 36.17 203.953 35.69C204.153 35.21 204.423 34.805 204.763 34.475C205.103 34.145 205.493 33.895 205.933 33.725C206.383 33.545 206.853 33.455 207.343 33.455C207.823 33.455 208.233 33.535 208.573 33.695C208.923 33.855 209.233 34.05 209.503 34.28L208.663 35.405C208.463 35.235 208.263 35.105 208.063 35.015C207.873 34.915 207.663 34.865 207.433 34.865C206.833 34.865 206.348 35.09 205.978 35.54C205.608 35.98 205.423 36.575 205.423 37.325C205.423 38.065 205.603 38.66 205.963 39.11C206.333 39.55 206.808 39.77 207.388 39.77C207.678 39.77 207.948 39.71 208.198 39.59C208.458 39.46 208.693 39.31 208.903 39.14L209.608 40.28C209.258 40.58 208.873 40.805 208.453 40.955C208.043 41.105 207.628 41.18 207.208 41.18ZM211.511 41V30.41H213.236V33.14L213.176 34.565C213.486 34.275 213.826 34.02 214.196 33.8C214.576 33.57 215.021 33.455 215.531 33.455C216.321 33.455 216.896 33.71 217.256 34.22C217.616 34.72 217.796 35.44 217.796 36.38V41H216.071V36.605C216.071 35.995 215.981 35.565 215.801 35.315C215.621 35.065 215.326 34.94 214.916 34.94C214.596 34.94 214.311 35.02 214.061 35.18C213.821 35.33 213.546 35.555 213.236 35.855V41H211.511ZM220.326 41V33.635H222.051V41H220.326ZM221.196 32.345C220.886 32.345 220.631 32.255 220.431 32.075C220.231 31.895 220.131 31.66 220.131 31.37C220.131 31.08 220.231 30.845 220.431 30.665C220.631 30.475 220.886 30.38 221.196 30.38C221.506 30.38 221.761 30.475 221.961 30.665C222.161 30.845 222.261 31.08 222.261 31.37C222.261 31.66 222.161 31.895 221.961 32.075C221.761 32.255 221.506 32.345 221.196 32.345ZM224.701 41V33.635H226.126L226.246 34.625H226.306C226.636 34.305 226.991 34.03 227.371 33.8C227.761 33.57 228.211 33.455 228.721 33.455C229.511 33.455 230.086 33.71 230.446 34.22C230.806 34.72 230.986 35.44 230.986 36.38V41H229.261V36.605C229.261 35.995 229.171 35.565 228.991 35.315C228.811 35.065 228.516 34.94 228.106 34.94C227.786 34.94 227.501 35.02 227.251 35.18C227.011 35.33 226.736 35.555 226.426 35.855V41H224.701Z" fill="white"/>
</g>
<defs>
<filter id="filter0_d" x="0.43605" y="0.169983" width="235.377" height="51.74" filterUnits="userSpaceOnUse" color-interpolation-filters="sRGB">
<feFlood flood-opacity="0" result="BackgroundImageFix"/>
<feColorMatrix in="SourceAlpha" type="matrix" values="0 0 0 0 0 0 0 0 0 0 0 0 0 0 0 0 0 0 127 0"/>
<feOffset dy="4"/>
<feGaussianBlur stdDeviation="2"/>
<feColorMatrix type="matrix" values="0 0 0 0 1 0 0 0 0 1 0 0 0 0 1 0 0 0 0.25 0"/>
<feBlend mode="normal" in2="BackgroundImageFix" result="effect1_dropShadow"/>
<feBlend mode="normal" in="SourceGraphic" in2="effect1_dropShadow" result="shape"/>
</filter>
</defs>
</svg>

